<svg width="32" height="32" viewBox="0 0 32 32" fill="none" xmlns="http://www.w3.org/2000/svg">
  <!-- Background circle with gradient -->
  <defs>
    <linearGradient id="bgGradient" x1="0%" y1="0%" x2="100%" y2="100%">
      <stop offset="0%" style="stop-color:#3B82F6;stop-opacity:1" />
      <stop offset="50%" style="stop-color:#8B5CF6;stop-opacity:1" />
      <stop offset="100%" style="stop-color:#4F46E5;stop-opacity:1" />
    </linearGradient>
    <linearGradient id="brainGradient" x1="0%" y1="0%" x2="100%" y2="100%">
      <stop offset="0%" style="stop-color:#FFFFFF;stop-opacity:1" />
      <stop offset="100%" style="stop-color:#E0E7FF;stop-opacity:1" />
    </linearGradient>
    <filter id="glow">
      <feGaussianBlur stdDeviation="1" result="coloredBlur"/>
      <feMerge> 
        <feMergeNode in="coloredBlur"/>
        <feMergeNode in="SourceGraphic"/>
      </feMerge>
    </filter>
  </defs>
  
  <!-- Main background -->
  <circle cx="16" cy="16" r="15" fill="url(#bgGradient)" stroke="#1E40AF" stroke-width="2"/>
  
  <!-- Brain/AI icon -->
  <g transform="translate(8, 8)" filter="url(#glow)">
    <!-- Brain outline -->
    <path d="M8 2C6.5 2 5.5 3 5.5 4.5C5.5 5 5.7 5.4 6 5.7C5.4 6.2 5 7 5 8C5 9.5 6 10.5 7.5 10.5C8 10.5 8.4 10.3 8.7 10C9.2 10.6 10 11 11 11C12.5 11 13.5 10 13.5 8.5C13.5 8 13.3 7.6 13 7.3C13.6 6.8 14 6 14 5C14 3.5 13 2.5 11.5 2.5C11 2.5 10.6 2.7 10.3 3C9.8 2.4 9 2 8 2Z" 
          fill="url(#brainGradient)" 
          stroke="#FFFFFF" 
          stroke-width="0.5"/>
    
    <!-- Neural connections -->
    <circle cx="6" cy="5" r="0.8" fill="#FEF3C7" opacity="0.9"/>
    <circle cx="10" cy="4" r="0.8" fill="#FEF3C7" opacity="0.9"/>
    <circle cx="8" cy="7" r="0.8" fill="#FEF3C7" opacity="0.9"/>
    <circle cx="11" cy="8" r="0.8" fill="#FEF3C7" opacity="0.9"/>
    
    <!-- Connection lines -->
    <line x1="6" y1="5" x2="8" y2="7" stroke="#F59E0B" stroke-width="0.5" opacity="0.7"/>
    <line x1="10" y1="4" x2="8" y2="7" stroke="#F59E0B" stroke-width="0.5" opacity="0.7"/>
    <line x1="8" y1="7" x2="11" y2="8" stroke="#F59E0B" stroke-width="0.5" opacity="0.7"/>
  </g>
  
  <!-- Sparkle effect -->
  <g opacity="0.8">
    <circle cx="24" cy="8" r="1" fill="#FCD34D">
      <animate attributeName="opacity" values="0.3;1;0.3" dur="2s" repeatCount="indefinite"/>
    </circle>
    <circle cx="26" cy="24" r="0.8" fill="#A78BFA">
      <animate attributeName="opacity" values="1;0.3;1" dur="1.5s" repeatCount="indefinite"/>
    </circle>
    <circle cx="6" cy="26" r="0.6" fill="#34D399">
      <animate attributeName="opacity" values="0.5;1;0.5" dur="1.8s" repeatCount="indefinite"/>
    </circle>
  </g>
</svg>